<?xml version="1.0" encoding="utf-8"?>
<!-- Generator: Adobe Illustrator 27.0.0, SVG Export Plug-In . SVG Version: 6.00 Build 0)  -->
<svg version="1.1" id="Livello_1" xmlns="http://www.w3.org/2000/svg" xmlns:xlink="http://www.w3.org/1999/xlink" x="0px" y="0px"
	 viewBox="0 0 2052.8 467.9" style="enable-background:new 0 0 2052.8 467.9;" xml:space="preserve">
<style type="text/css">
	.st0{fill:#F5F5F4;}
	.st1{fill:#222222;}
	.st2{display:none;fill:#F5F5F4;}
	.st3{display:none;fill:#222222;}
</style>
<g>
	<path class="st0" d="M983.8,3989c-56.4,69.6-142.2,101.8-225.4,93.2l4-4.7L882.1,3936c16.1-19,16.1-46.6,0.1-65.5L679,3629.9
		c-18.2-21.6-50.6-24.4-72.4-6.3c-12.1,10.1-18.4,24.6-18.4,39.2c0,11.5,3.9,23.1,12,32.7l147.8,175c16,19,16,46.6-0.1,65.6
		l-94.2,111.3c-9.8-5.9-19.3-12.5-28.5-19.8c-9.2-7.3-18.7-13.9-28.5-19.8l54.1-63.8c18.3-21.6,15.5-53.7-6.2-71.8h0
		c-21.7-18.1-54.1-15.3-72.4,6.3l-80.1,94.5c-83.2-8.7-169.1,23.6-225.4,93.2c-88.3,109-71,268.6,38.8,356.4
		c-219.5-175.5-254.2-494.6-77.5-712.7s497.7-252.6,717.2-77C1054.8,3720.4,1072.1,3880,983.8,3989z"/>
</g>
<g>
	<path class="st1" d="M1011.5,4332c-174.9,216.4-492.8,250.6-710.1,76.5c-108.6-87.1-125.8-245.4-38.4-353.6
		c55.8-69.1,140.8-101,223.2-92.4c35.9,3.7,71.3,15.2,103.6,34.6c9.7,5.8,19.2,12.4,28.2,19.7c9.1,7.3,18.5,13.8,28.2,19.7
		c32.3,19.4,67.7,30.8,103.6,34.6c82.4,8.6,167.4-23.4,223.2-92.4c87.4-108.2,70.3-266.5-38.4-353.6
		C1152,3798.9,1186.4,4115.6,1011.5,4332z"/>
</g>
<path class="st1" d="M881.5,3931.2L761.3,4074l-4,4.8c-36.4-3.8-72.3-15.4-105-35.2l94.6-112.4c16.1-19.1,16.1-47.1,0.1-66.2
	l-148.4-176.8c-8.1-9.6-12-21.3-12-33c0-14.7,6.3-29.3,18.5-39.5c21.8-18.3,54.4-15.5,72.6,6.3l203.9,243
	C897.7,3884.1,897.7,3912,881.5,3931.2z"/>
<path class="st0" d="M757.3,4078.8l-80.4,95.5c-10.2,12.1-24.8,18.4-39.6,18.4c-11.7,0-23.4-3.9-33.1-12
	c-21.8-18.3-24.6-50.7-6.3-72.5l54.3-64.5C685,4063.4,720.9,4075,757.3,4078.8z"/>
<path class="st1" d="M649.3,3939.1l-54.3,64.5c-32.7-19.7-68.6-31.4-105-35.2l80.4-95.5c18.3-21.8,50.9-24.6,72.7-6.4h0
	C664.8,3884.8,667.6,3917.3,649.3,3939.1z"/>
<path class="st0" d="M642.3,4431.5c-21.8,18.3-54.4,15.5-72.7-6.3l-203.9-243c-16.1-19.1-16-47.1,0.1-66.2L490,3968.4
	c36.4,3.8,72.3,15.4,105,35.2L500.4,4116c-16.1,19.1-16.2,47.1-0.1,66.2L648.7,4359C667,4380.8,664.1,4413.3,642.3,4431.5z"/>
<path class="st1" d="M2830.8,1967.7l-33.1,187.4c-4.4,25.1,9.8,49.8,33.7,58.5l303.9,110.7c27.2,9.9,57.4-4.2,67.3-31.4l0,0
	c9.9-27.3-4.1-57.5-31.4-67.4l-221.1-80.6c-23.9-8.7-38.2-33.4-33.7-58.5l40.9-232.1c5-28.6-14-55.9-42.6-60.9h0
	c-28.6-5-55.8,14.1-60.8,42.7L2830.8,1967.7L2830.8,1967.7z"/>
<g>
	<path class="st0" d="M3499.6,3425.5c-282.8,0-512,229.2-512,512s229.2,512,512,512c-141.4,0-256-114.6-256-256
		c0-141.4,114.6-256,256-256c141.4,0,256-114.6,256-256C3755.6,3540.1,3641,3425.5,3499.6,3425.5z"/>
	<path class="st1" d="M3499.6,3425.5c141.4,0,256,114.6,256,256c0,141.4-114.6,256-256,256c-141.4,0-256,114.6-256,256
		c0,141.4,114.6,256,256,256c282.8,0,512-229.2,512-512S3782.3,3425.5,3499.6,3425.5z"/>
</g>
<g>
	<g>
		<path class="st0" d="M1048.8,3766c4.4,7.2,8.6,14.6,12.6,22.1c30.4,56.6,49.4,117.8,56.3,182c7,64.2,1.6,128.1-16,189.9
			c-18.2,64-48.8,122.9-90.8,175.2c-24.1,30-51.5,57-81.5,80.5c-29.2,22.8-61,42.3-94.5,58c-33,15.4-67.7,27.3-103.4,35.1
			c-35.4,7.8-71.8,11.8-108.1,11.8c-55.4,0-110-9.1-162.2-27.2c-54-18.7-104.1-46.5-149-82.6c-25.4-20.4-45.9-45.1-61.2-73.5
			c-14.7-27.4-23.9-57.1-27.3-88.3c-3.4-31.1-0.8-62.1,7.8-92.1c8.8-31,23.6-59.6,44-84.9c46-57.2,114.5-89.9,187.9-89.9
			c26.9,0,53.3,4.4,78.6,13.2c26.2,9.1,50.5,22.5,72.3,40.1c48,38.6,108.3,59.9,169.7,59.9c82.6,0,159.6-36.9,211.3-101.1
			c45.4-56.4,66.1-127.1,58.3-199.1C1052.5,3785.2,1050.9,3775.5,1048.8,3766 M944.6,3624.7c110.2,88.6,127.6,249.8,39,359.9
			c-50.6,62.9-124.8,95.5-199.6,95.5c-56.3,0-113-18.5-160.3-56.5c-47.3-38-104-56.5-160.3-56.5c-74.9,0-149,32.7-199.6,95.5
			c-88.6,110.2-71.2,271.3,39,359.9c94.6,76.1,208,113.1,320.6,113.1c149.7,0,298.1-65.3,399.2-191.1
			C1199.8,4124.2,1164.9,3802,944.6,3624.7L944.6,3624.7z"/>
	</g>
	<g>
		<path class="st1" d="M624,3526.6c55.4,0,110,9.1,162.2,27.2c54,18.7,104.1,46.5,149,82.6c25.4,20.4,46,45.1,61.2,73.6
			c14.7,27.4,23.9,57.1,27.3,88.3c3.4,31.1,0.8,62.1-7.8,92.1c-8.8,31-23.7,59.6-44.1,85c-46,57.2-114.5,89.9-187.9,89.9
			c-26.9,0-53.3-4.4-78.6-13.2c-26.2-9.1-50.5-22.5-72.3-40.1c-48-38.6-108.3-59.9-169.7-59.9c-82.6,0-159.6,36.9-211.3,101.1
			c-53.5,66.5-70.4,150.9-53.3,228.4c-4.5-7.4-8.7-14.8-12.8-22.5c-30.4-56.6-49.4-117.8-56.3-182c-7-64.2-1.6-128.1,16-189.9
			c18.2-64,48.8-122.9,90.8-175.2c24.1-30,51.5-57,81.5-80.5c29.2-22.8,61-42.3,94.5-58c33-15.4,67.7-27.3,103.4-35.2
			C551.3,3530.6,587.7,3526.6,624,3526.6 M624,3511.6c-149.7,0-298.1,65.3-399.2,191.1c-177.2,220.3-142.3,542.6,78,719.8
			c-110.2-88.6-127.6-249.8-39-359.9c50.6-62.9,124.8-95.5,199.6-95.5c56.3,0,113,18.5,160.3,56.5c47.3,38,104,56.5,160.3,56.5
			c74.9,0,149-32.7,199.6-95.5c88.6-110.2,71.2-271.3-39-359.9C850,3548.6,736.6,3511.6,624,3511.6L624,3511.6z"/>
	</g>
</g>
<g>
	<path class="st0" d="M1424.3,2883.4c-83.2-8.7-169.1,23.6-225.4,93.2c-88.3,109-71,268.6,38.8,356.4
		c-219.5-175.5-254.2-494.6-77.5-712.7s497.7-252.6,717.2-77c109.7,87.8,127.1,247.3,38.8,356.4c-56.4,69.6-142.2,101.8-225.4,93.2
		l-54.5-3.1"/>
</g>
<g>
	<path class="st0" d="M1636.1,2989.6l-50.1-31.7c-9.8-5.9-19.3-12.5-28.5-19.8c-9.2-7.3-18.7-13.9-28.5-19.8l-54.8-18.7"/>
</g>
<g>
	<path class="st1" d="M1943.7,3242.5c-174.9,216.4-492.8,250.6-710.1,76.5c-108.6-87.1-125.8-245.4-38.4-353.6
		c55.8-69.1,140.8-101,223.2-92.4c35.9,3.7,71.3,15.2,103.6,34.6c9.7,5.8,19.2,12.4,28.2,19.7c9.1,7.3,18.5,13.8,28.2,19.7
		c32.3,19.4,67.7,30.8,103.6,34.6c82.4,8.6,167.4-23.4,223.2-92.4c87.4-108.2,70.3-266.5-38.4-353.6
		C2084.3,2709.5,2118.7,3026.1,1943.7,3242.5z"/>
</g>
<g>
	<g>
		<path class="st0" d="M1981.1,2676.6c4.4,7.2,8.6,14.6,12.6,22.1c30.4,56.6,49.4,117.8,56.3,182c7,64.2,1.6,128.1-16,189.9
			c-18.2,64-48.8,122.9-90.8,175.2c-24.1,30-51.5,57-81.5,80.5c-29.2,22.8-61,42.3-94.5,58c-33,15.4-67.7,27.3-103.4,35.1
			c-35.4,7.8-71.8,11.8-108.1,11.8c-55.4,0-110-9.1-162.2-27.2c-54-18.7-104.1-46.5-149-82.6c-25.4-20.4-45.9-45.1-61.2-73.5
			c-14.7-27.4-23.9-57.1-27.3-88.3c-3.4-31.1-0.8-62.1,7.8-92.1c8.8-31,23.6-59.6,44-84.9c46-57.2,114.5-89.9,187.9-89.9
			c26.9,0,53.3,4.4,78.6,13.2c26.2,9.1,50.5,22.5,72.3,40.1c48,38.6,108.3,59.9,169.7,59.9c82.6,0,159.6-36.9,211.3-101.1
			c45.4-56.4,66.1-127.1,58.3-199.1C1984.8,2695.7,1983.2,2686.1,1981.1,2676.6 M1876.9,2535.2c110.2,88.6,127.6,249.8,39,359.9
			c-50.6,62.9-124.8,95.5-199.6,95.5c-56.3,0-113-18.5-160.3-56.5c-47.3-38-104-56.5-160.3-56.5c-74.9,0-149,32.7-199.6,95.5
			c-88.6,110.2-71.2,271.3,39,359.9c94.6,76.1,208,113.1,320.6,113.1c149.7,0,298.1-65.3,399.2-191.1
			C2132.1,3034.8,2097.2,2712.5,1876.9,2535.2L1876.9,2535.2z"/>
	</g>
	<g>
		<path class="st1" d="M1556.3,2437.1c55.4,0,110,9.1,162.2,27.2c54,18.7,104.1,46.5,149,82.6c25.4,20.4,46,45.1,61.2,73.6
			c14.7,27.4,23.9,57.1,27.3,88.3c3.4,31.1,0.8,62.1-7.8,92.1c-8.8,31-23.7,59.6-44.1,85c-46,57.2-114.5,89.9-187.9,89.9
			c-26.9,0-53.3-4.4-78.6-13.2c-26.2-9.1-50.5-22.5-72.3-40.1c-48-38.6-108.3-59.9-169.7-59.9c-82.6,0-159.6,36.9-211.3,101.1
			c-45.4,56.4-66.1,127.1-58.3,199.1c1.1,9.8,2.6,19.5,4.7,29c-4.4-7.2-8.6-14.6-12.6-22.1c-30.4-56.6-49.4-117.8-56.3-182
			c-7-64.2-1.6-128.1,16-189.9c18.2-64,48.8-122.9,90.8-175.2c24.1-30,51.5-57,81.5-80.5c29.2-22.8,61-42.3,94.5-58
			c33-15.4,67.7-27.3,103.4-35.2C1483.6,2441.1,1520,2437.1,1556.3,2437.1 M1556.3,2422.1c-149.7,0-298.1,65.3-399.2,191.1
			c-177.2,220.3-142.3,542.6,78,719.8c-110.2-88.6-127.6-249.8-39-359.9c50.6-62.9,124.8-95.5,199.6-95.5
			c56.3,0,113,18.5,160.3,56.5c47.3,38,104,56.5,160.3,56.5c74.9,0,149-32.7,199.6-95.5c88.6-110.2,71.2-271.3-39-359.9
			C1782.3,2459.1,1668.9,2422.1,1556.3,2422.1L1556.3,2422.1z"/>
	</g>
</g>
<g>
	<g>
		<path class="st0" d="M2142.1,4507.7c-25.5-6.3-50.5-14.6-75-25c-60.1-25.4-114-61.8-160.4-108.1s-82.7-100.3-108.1-160.4
			c-26.3-62.2-39.6-128.3-39.6-196.4s13.3-134.2,39.6-196.4c25.4-60.1,61.8-114,108.1-160.4c46.3-46.3,100.3-82.7,160.4-108.1
			c62.2-26.3,128.3-39.6,196.4-39.6c66.4,0,128.8,25.8,175.7,72.8s72.8,109.3,72.8,175.7c0,66.4-25.8,128.8-72.8,175.7
			c-46.9,46.9-109.3,72.8-175.7,72.8c-145.3,0-263.5,118.2-263.5,263.5C2000,4375.4,2057.8,4463.7,2142.1,4507.7z"/>
		<path class="st1" d="M2263.5,3520.9c32.5,0,64.1,6.4,93.8,18.9c28.7,12.1,54.5,29.5,76.6,51.7c22.1,22.1,39.5,47.9,51.7,76.6
			c12.6,29.7,18.9,61.3,18.9,93.8c0,32.5-6.4,64.1-18.9,93.8c-12.1,28.7-29.5,54.5-51.7,76.6c-22.1,22.1-47.9,39.5-76.6,51.7
			c-29.7,12.6-61.3,18.9-93.8,18.9c-149.4,0-271,121.6-271,271c0,85.4,39.7,161.7,101.6,211.4c-8.1-2.9-16.1-6.1-24.1-9.5
			c-59.2-25-112.3-60.9-158-106.5c-45.6-45.6-81.5-98.8-106.5-158c-25.9-61.3-39.1-126.3-39.1-193.5c0-67.1,13.1-132.2,39.1-193.5
			c25-59.2,60.9-112.3,106.5-158c45.6-45.6,98.8-81.5,158-106.5C2131.3,3534,2196.4,3520.9,2263.5,3520.9 M2263.5,3505.9
			c-282.8,0-512,229.2-512,512s229.2,512,512,512c-141.4,0-256-114.6-256-256c0-141.4,114.6-256,256-256c141.4,0,256-114.6,256-256
			C2519.5,3620.5,2404.9,3505.9,2263.5,3505.9L2263.5,3505.9z"/>
	</g>
	<g>
		<path class="st1" d="M2263.5,4522.4c-66.4,0-128.8-25.8-175.7-72.8c-46.9-46.9-72.8-109.3-72.8-175.7
			c0-66.4,25.8-128.8,72.8-175.7c46.9-46.9,109.3-72.8,175.7-72.8c145.3,0,263.5-118.2,263.5-263.5c0-101.5-57.7-189.8-142.1-233.8
			c25.5,6.3,50.5,14.6,75,25c60.1,25.4,114,61.8,160.4,108.1c46.3,46.3,82.7,100.3,108.1,160.4c26.3,62.2,39.6,128.3,39.6,196.4
			s-13.3,134.2-39.6,196.4c-25.4,60.1-61.8,114-108.1,160.4s-100.3,82.7-160.4,108.1C2397.7,4509,2331.6,4522.4,2263.5,4522.4z"/>
		<path class="st0" d="M2432.9,3550.5c8.1,2.9,16.1,6.1,24.1,9.5c59.2,25,112.3,60.9,158,106.5c45.6,45.6,81.5,98.8,106.5,158
			c25.9,61.3,39.1,126.3,39.1,193.5c0,67.1-13.1,132.2-39.1,193.5c-25,59.2-60.9,112.3-106.5,158s-98.8,81.5-158,106.5
			c-61.3,25.9-126.3,39.1-193.5,39.1c-32.5,0-64.1-6.4-93.8-18.9c-28.7-12.1-54.5-29.5-76.6-51.7c-22.1-22.1-39.5-47.9-51.7-76.6
			c-12.6-29.7-18.9-61.3-18.9-93.8c0-32.5,6.4-64.1,18.9-93.8c12.1-28.7,29.5-54.5,51.7-76.6c22.1-22.1,47.9-39.5,76.6-51.7
			c29.7-12.6,61.3-18.9,93.8-18.9c149.4,0,271-121.6,271-271C2534.5,3676.5,2494.8,3600.2,2432.9,3550.5 M2263.5,3505.9
			c141.4,0,256,114.6,256,256c0,141.4-114.6,256-256,256c-141.4,0-256,114.6-256,256c0,141.4,114.6,256,256,256
			c282.8,0,512-229.2,512-512S2546.3,3505.9,2263.5,3505.9L2263.5,3505.9z"/>
	</g>
</g>
<path class="st1" d="M2230.7,3941v79c-35.2,4.5-68.1,16.1-97.3,33.4V3941c0-13.5,5.4-25.7,14.2-34.5c8.8-8.8,21-14.3,34.4-14.3
	C2208.9,3892.2,2230.7,3914,2230.7,3941z"/>
<path class="st0" d="M2525.9,4294c0,2.8-0.2,5.7-0.8,8.5c-4.7,26.5-29.9,44.3-56.4,39.6l-295.2-52.2c-23.2-4.1-40.2-24.4-40.2-48.1
	v-188.4c29.2-17.3,62.1-28.9,97.3-33.4v139.9c0,23.7,16.9,44,40.2,48.1l214.8,38C2509.2,4250.1,2525.9,4270.7,2525.9,4294z"/>
<path class="st1" d="M2393.7,3794v188.4c-29.2,17.3-62.1,28.9-97.3,33.4v-139.9c0-23.7-16.9-44-40.2-48.1l-214.8-38
	c-26.5-4.7-44.1-30-39.5-56.6c4.7-26.6,29.9-44.3,56.4-39.6l295.2,52.2C2376.8,3750,2393.7,3770.3,2393.7,3794z"/>
<path class="st0" d="M2393.7,3982.4v112.4c0,27-21.8,48.8-48.7,48.8c-13.4,0-25.6-5.5-34.4-14.3c-8.8-8.8-14.2-21.1-14.2-34.5v-79
	C2331.6,4011.3,2364.5,3999.6,2393.7,3982.4z"/>
<circle class="st2" cx="4722" cy="2079.4" r="128"/>
<circle class="st3" cx="5234" cy="2078.5" r="128"/>
<g>
	<path class="st1" d="M5087.6,2720.1c-68.1,0-134.2-13.3-196.4-39.6c-60.1-25.4-114-61.8-160.4-108.1
		c-46.3-46.3-82.7-100.3-108.1-160.4c-26.3-62.2-39.6-128.3-39.6-196.4c0-66.4,25.8-128.8,72.8-175.7
		c46.9-46.9,109.3-72.8,175.7-72.8c66.4,0,128.8,25.8,175.7,72.8c46.9,46.9,72.8,109.3,72.8,175.7c0,145.3,118.2,263.5,263.5,263.5
		c101.5,0,189.8-57.7,233.8-142.1c-6.3,25.5-14.6,50.5-25,75c-25.4,60.1-61.8,114-108.1,160.4s-100.3,82.7-160.4,108.1
		C5221.8,2706.8,5155.7,2720.1,5087.6,2720.1z"/>
	<path class="st0" d="M4831.6,1974.6c32.5,0,64.1,6.4,93.8,18.9c28.7,12.1,54.5,29.5,76.6,51.7c22.1,22.1,39.5,47.9,51.7,76.6
		c12.6,29.7,18.9,61.3,18.9,93.8c0,149.4,121.6,271,271,271c85.4,0,161.7-39.7,211.4-101.6c-2.9,8.1-6.1,16.1-9.5,24.1
		c-25,59.2-60.9,112.3-106.5,158s-98.8,81.5-158,106.5c-61.3,25.9-126.3,39.1-193.5,39.1c-67.1,0-132.2-13.1-193.4-39.1
		c-59.2-25-112.3-60.9-158-106.5c-45.6-45.6-81.5-98.8-106.5-158c-25.9-61.3-39.1-126.3-39.1-193.5c0-32.5,6.4-64.1,18.9-93.8
		c12.1-28.7,29.5-54.5,51.7-76.6c22.1-22.1,47.9-39.5,76.6-51.7C4767.5,1981,4799.1,1974.6,4831.6,1974.6 M4831.6,1959.6
		c-141.4,0-256,114.6-256,256c0,282.8,229.2,512,512,512c282.8,0,512-229.2,512-512c0,141.4-114.6,256-256,256
		c-141.4,0-256-114.6-256-256C5087.6,2074.2,4973,1959.6,4831.6,1959.6L4831.6,1959.6z"/>
</g>
<g>
	<path class="st0" d="M5343.6,2464.1c-66.4,0-128.8-25.8-175.7-72.8c-46.9-46.9-72.8-109.3-72.8-175.7
		c0-145.3-118.2-263.5-263.5-263.5c-101.5,0-189.8,57.7-233.8,142.1c6.3-25.5,14.6-50.5,25-75c25.4-60.1,61.8-114,108.1-160.4
		c46.3-46.3,100.3-82.7,160.4-108.1c62.2-26.3,128.3-39.6,196.4-39.6c68.1,0,134.2,13.3,196.4,39.6c60.1,25.4,114,61.8,160.4,108.1
		s82.7,100.3,108.1,160.4c26.3,62.2,39.6,128.3,39.6,196.4c0,66.4-25.8,128.8-72.8,175.7C5472.4,2438.3,5410,2464.1,5343.6,2464.1z"
		/>
	<path class="st1" d="M5087.6,1718.6c67.1,0,132.2,13.1,193.5,39.1c59.2,25,112.3,60.9,158,106.5c45.6,45.6,81.5,98.8,106.5,158
		c25.9,61.3,39.1,126.3,39.1,193.5c0,32.5-6.4,64.1-18.9,93.8c-12.1,28.7-29.5,54.5-51.7,76.6c-22.1,22.1-47.9,39.5-76.6,51.7
		c-29.7,12.6-61.3,18.9-93.8,18.9c-32.5,0-64.1-6.4-93.8-18.9c-28.7-12.1-54.5-29.5-76.6-51.7c-22.1-22.1-39.5-47.9-51.7-76.6
		c-12.6-29.7-18.9-61.3-18.9-93.8c0-149.4-121.6-271-271-271c-85.4,0-161.7,39.7-211.4,101.6c2.9-8.1,6.1-16.1,9.5-24.1
		c25-59.2,60.9-112.3,106.5-158c45.6-45.6,98.8-81.5,158-106.5C4955.4,1731.7,5020.5,1718.6,5087.6,1718.6 M5087.6,1703.6
		c-282.8,0-512,229.2-512,512c0-141.4,114.6-256,256-256c141.4,0,256,114.6,256,256c0,141.4,114.6,256,256,256
		c141.4,0,256-114.6,256-256C5599.6,1932.8,5370.4,1703.6,5087.6,1703.6L5087.6,1703.6z"/>
</g>
<path class="st1" d="M5387.8,2104l76.1,90.7c10.2,12.2,10.2,29.9,0,42l-129.3,154.2c-11.6,13.8-32.2,15.6-46,4l0,0
	c-13.8-11.6-15.7-32.2-4.1-46.1l94.1-112.2c10.2-12.1,10.2-29.9,0-42l-94.2-112.3c-11.6-13.8-9.8-34.5,4-46l0,0
	c13.8-11.6,34.4-9.8,46,4.1L5387.8,2104L5387.8,2104z"/>
<path class="st0" d="M4787.4,2104l-76.1,90.7c-10.2,12.2-10.2,29.9,0,42l129.3,154.2c11.6,13.8,32.2,15.6,46,4l0,0
	c13.8-11.6,15.7-32.2,4.1-46.1l-94.1-112.2c-10.2-12.1-10.2-29.9,0-42l94.2-112.3c11.6-13.8,9.8-34.5-4-46h0
	c-13.8-11.6-34.4-9.8-46,4.1L4787.4,2104L4787.4,2104z"/>
<path class="st0" d="M5110.2,2320.8l-62.4,232.9c-7,26.2-33.9,41.7-60,34.7c-21.9-5.9-36.4-25.7-36.4-47.3c0-4.2,0.5-8.5,1.7-12.7
	l112-418c14.5,32.1,22.6,67.7,22.6,105.2S5095.7,2288.7,5110.2,2320.8z"/>
<path class="st1" d="M5222.2,1902.8l-112,418c-14.5-32.1-22.6-67.7-22.6-105.2s-8.1-73.1-22.6-105.2l62.4-232.9
	c7-26.2,33.9-41.7,60-34.7C5213.7,1849.8,5229.2,1876.7,5222.2,1902.8z"/>
<g>
	<g>
		<path d="M211.7,37.9c30.6,0,56.5,3.3,77.6,9.8c21.1,6.5,38.1,17.3,51,32.2c12.9,14.9,22.3,35.2,28.3,60.8c6,25.6,9,57.6,9,96
			c0,38.5-3,70.5-9,96c-6,25.6-15.4,45.8-28.3,60.8c-12.9,14.9-29.9,25.7-51,32.2c-21.1,6.5-47,9.8-77.6,9.8
			c-29.5,0-56.6-0.6-81.2-1.7c-24.6-1.1-48.2-2.4-70.6-3.9l35.8-63.3c14.2,0.8,31.1,1.4,50.7,2c19.6,0.6,41.3,0.8,65.2,0.8
			c19,0,34.1-3.8,45.1-11.5c11-7.6,18.8-21.2,23.5-40.6c4.7-19.4,7-46.3,7-80.6c0-34.3-2.3-61.2-7-80.6c-4.7-19.4-12.5-33-23.5-40.9
			c-11-7.8-26-11.8-45.1-11.8c-22.8,0-43.1,0.1-61,0.3c-17.9,0.2-35.5,0.3-52.6,0.3L59.9,43.5c22.4-1.5,45.8-2.8,70.3-3.9
			C154.6,38.5,181.8,37.9,211.7,37.9z M145.6,43.5v386.4H59.9V43.5H145.6z"/>
		<path d="M530.3,41.9c20.9,0,42,0.1,63.3,0.3c21.3,0.2,42.2,0.7,62.7,1.4c20.5,0.8,39.8,2.1,57.7,3.9l-3.9,62.2H561.7
			c-9.3,0-16.3,2.4-21,7.3c-4.7,4.9-7,12-7,21.3v197.1c0,9.3,2.3,16.4,7,21.3c4.7,4.9,11.7,7.3,21,7.3h148.4L714,426
			c-17.9,1.5-37.2,2.7-57.7,3.6c-20.5,0.9-41.4,1.5-62.7,1.7c-21.3,0.2-42.4,0.3-63.3,0.3c-24.6,0-44.5-7.2-59.6-21.6
			c-15.1-14.4-22.7-33.1-22.7-56.3V119.7c0-23.5,7.6-42.4,22.7-56.6C485.8,49,505.7,41.9,530.3,41.9z M458.1,198.7h231.3v60.5H458.1
			V198.7z"/>
		<path d="M1098.1,43.5L992.9,406.4c-1.9,6.7-5.5,12.3-10.9,16.8c-5.4,4.5-11.9,6.7-19.3,6.7h-78.4c-7.8,0-14.5-2.2-19.9-6.7
			c-5.4-4.5-8.9-10.1-10.4-16.8L748.1,43.5h88.5l70.6,278.9c1.5,7.1,3.1,14.3,4.8,21.6c1.7,7.3,3.1,14.5,4.2,21.6h14.6
			c1.1-7.1,2.5-14.4,4.2-21.8c1.7-7.5,3.4-14.7,5.3-21.8l70-278.3H1098.1z"/>
		<path d="M1545.6,43.5c20.2,0,30.6,10.5,31.4,31.4l14.6,355h-79l-12.9-320.3h-10.1l-62.2,240.8c-3.4,17.9-14.6,26.9-33.6,26.9
			h-53.8c-19,0-30.6-9-34.7-26.9l-62.2-240.8h-9.5l-11.8,320.3h-79.5l14.6-355c0.7-20.9,11.4-31.4,31.9-31.4h80.1
			c18.3,0,29.5,9.2,33.6,27.4l49.8,194.3c2.2,9,4.1,18,5.6,27.2c1.5,9.2,3.2,18.4,5,27.7h7.3c1.9-9.3,3.6-18.6,5.3-27.7
			c1.7-9.1,3.4-18.4,5.3-27.7L1430.2,71c3.7-18.3,14.9-27.4,33.6-27.4H1545.6z"/>
		<path d="M1855.3,43.5c7.1,0,13.3,2.1,18.8,6.2c5.4,4.1,9,9.5,10.9,16.2l112,364h-87.4l-79-283.9c-1.5-6.3-3-12.8-4.5-19.3
			c-1.5-6.5-2.8-12.8-3.9-18.8h-15.1c-1.1,6-2.3,12.2-3.6,18.8c-1.3,6.5-2.9,13-4.8,19.3l-79,283.9h-87.9l112.6-364
			c1.9-6.7,5.5-12.1,10.9-16.2c5.4-4.1,11.7-6.2,18.8-6.2H1855.3z M1914.6,263.6V328h-200.5v-64.4H1914.6z"/>
	</g>
</g>
</svg>
