<?xml version="1.0" encoding="utf-8"?>
<!-- Generator: Adobe Illustrator 27.0.0, SVG Export Plug-In . SVG Version: 6.00 Build 0)  -->
<svg version="1.1" id="Livello_1" xmlns="http://www.w3.org/2000/svg" xmlns:xlink="http://www.w3.org/1999/xlink" x="0px" y="0px"
	 viewBox="0 0 1024 1024" style="enable-background:new 0 0 1024 1024;" xml:space="preserve">
<style type="text/css">
	.st0{fill:#F5F5F4;}
	.st1{fill:#222222;}
	.st2{display:none;fill:#F5F5F4;}
	.st3{display:none;fill:#222222;}
</style>
<g>
	<path class="st0" d="M-3591.8,2285.4c-56.4,69.6-142.2,101.8-225.4,93.2l4-4.7l119.7-141.4c16.1-19,16.1-46.6,0.1-65.5
		l-203.2-240.6c-18.2-21.6-50.6-24.4-72.4-6.3c-12.1,10.1-18.4,24.6-18.4,39.2c0,11.5,3.9,23.1,12,32.7l147.8,175
		c16,19,16,46.6-0.1,65.6l-94.2,111.3c-9.8-5.9-19.3-12.5-28.5-19.8c-9.2-7.3-18.7-13.9-28.5-19.8l54.1-63.8
		c18.3-21.6,15.5-53.7-6.2-71.8h0c-21.7-18.1-54.1-15.3-72.4,6.3l-80.1,94.5c-83.2-8.7-169.1,23.6-225.4,93.2
		c-88.3,109-71,268.6,38.8,356.4c-219.5-175.5-254.2-494.6-77.5-712.7s497.7-252.6,717.2-77
		C-3520.8,2016.8-3503.5,2176.4-3591.8,2285.4z"/>
</g>
<g>
	<path class="st1" d="M-3564.1,2628.4c-174.9,216.4-492.8,250.6-710.1,76.5c-108.6-87.1-125.8-245.4-38.4-353.6
		c55.8-69.1,140.8-101,223.2-92.4c35.9,3.7,71.3,15.2,103.6,34.6c9.7,5.8,19.2,12.4,28.2,19.7c9.1,7.3,18.5,13.8,28.2,19.7
		c32.3,19.4,67.7,30.8,103.6,34.6c82.4,8.6,167.4-23.4,223.2-92.4c87.4-108.2,70.3-266.5-38.4-353.6
		C-3423.6,2095.3-3389.2,2412-3564.1,2628.4z"/>
</g>
<path class="st1" d="M-3694.1,2227.6l-120.2,142.8l-4,4.8c-36.4-3.8-72.3-15.4-105-35.2l94.6-112.4c16.1-19.1,16.1-47.1,0.1-66.2
	l-148.4-176.8c-8.1-9.6-12-21.3-12-33c0-14.7,6.3-29.3,18.5-39.5c21.8-18.3,54.4-15.5,72.6,6.3l203.9,243
	C-3677.9,2180.5-3677.9,2208.4-3694.1,2227.6z"/>
<path class="st0" d="M-3818.3,2375.2l-80.4,95.5c-10.2,12.1-24.8,18.4-39.6,18.4c-11.7,0-23.4-3.9-33.1-12
	c-21.8-18.3-24.6-50.7-6.3-72.5l54.3-64.5C-3890.6,2359.8-3854.7,2371.4-3818.3,2375.2z"/>
<path class="st1" d="M-3926.3,2235.5l-54.3,64.5c-32.7-19.7-68.6-31.4-105-35.2l80.4-95.5c18.3-21.8,50.9-24.6,72.7-6.4h0
	C-3910.8,2181.2-3908,2213.7-3926.3,2235.5z"/>
<path class="st0" d="M-3933.3,2727.9c-21.8,18.3-54.4,15.5-72.7-6.3l-203.9-243c-16.1-19.1-16-47.1,0.1-66.2l124.2-147.6
	c36.4,3.8,72.3,15.4,105,35.2l-94.6,112.4c-16.1,19.1-16.2,47.1-0.1,66.2l148.4,176.8C-3908.6,2677.2-3911.5,2709.6-3933.3,2727.9z"
	/>
<path class="st1" d="M-1744.8,264.1l-33.1,187.4c-4.4,25.1,9.8,49.8,33.7,58.5l303.9,110.7c27.2,9.9,57.4-4.2,67.3-31.4v0
	c9.9-27.3-4.1-57.5-31.4-67.4l-221.1-80.6c-23.9-8.7-38.2-33.4-33.7-58.5l40.9-232.1c5-28.6-14-55.9-42.6-60.9l0,0
	c-28.6-5-55.8,14.1-60.8,42.7L-1744.8,264.1L-1744.8,264.1z"/>
<g>
	<path class="st0" d="M-1076,1721.9c-282.8,0-512,229.2-512,512s229.2,512,512,512c-141.4,0-256-114.6-256-256
		c0-141.4,114.6-256,256-256c141.4,0,256-114.6,256-256C-820,1836.5-934.7,1721.9-1076,1721.9z"/>
	<path class="st1" d="M-1076,1721.9c141.4,0,256,114.6,256,256c0,141.4-114.6,256-256,256c-141.4,0-256,114.6-256,256
		c0,141.4,114.6,256,256,256c282.8,0,512-229.2,512-512S-793.3,1721.9-1076,1721.9z"/>
</g>
<g>
	<g>
		<path class="st0" d="M-3526.8,2062.4c4.4,7.2,8.6,14.6,12.6,22.1c30.4,56.6,49.4,117.8,56.3,182c7,64.2,1.6,128.1-16,189.9
			c-18.2,64-48.8,122.9-90.8,175.2c-24.1,30-51.5,57-81.5,80.5c-29.2,22.8-61,42.3-94.5,58c-33,15.4-67.7,27.3-103.4,35.2
			c-35.4,7.8-71.8,11.8-108.1,11.8c-55.4,0-110-9.1-162.2-27.2c-54-18.7-104.1-46.5-149-82.6c-25.4-20.4-45.9-45.1-61.2-73.5
			c-14.7-27.4-23.9-57.1-27.3-88.3c-3.4-31.1-0.8-62.1,7.8-92.1c8.8-31,23.6-59.6,44-84.9c46-57.2,114.5-89.9,187.9-89.9
			c26.9,0,53.3,4.4,78.6,13.2c26.2,9.1,50.5,22.5,72.3,40.1c48,38.6,108.3,59.9,169.7,59.9c82.6,0,159.6-36.9,211.3-101.1
			c45.4-56.4,66.1-127.1,58.3-199.1C-3523.1,2081.6-3524.7,2071.9-3526.8,2062.4 M-3631,1921.1c110.2,88.6,127.6,249.8,39,359.9
			c-50.6,62.9-124.8,95.5-199.6,95.5c-56.3,0-113-18.5-160.3-56.5c-47.3-38-104-56.5-160.3-56.5c-74.9,0-149,32.7-199.6,95.5
			c-88.6,110.2-71.2,271.3,39,359.9c94.6,76.1,208,113.1,320.6,113.1c149.7,0,298.1-65.3,399.2-191.1
			C-3375.8,2420.6-3410.7,2098.3-3631,1921.1L-3631,1921.1z"/>
	</g>
	<g>
		<path class="st1" d="M-3951.6,1823c55.4,0,110,9.1,162.2,27.2c54,18.7,104.1,46.5,149,82.6c25.4,20.4,46,45.1,61.2,73.6
			c14.7,27.4,23.9,57.1,27.3,88.3c3.4,31.1,0.8,62.1-7.8,92.1c-8.8,31-23.7,59.6-44.1,85c-46,57.2-114.5,89.9-187.9,89.9
			c-26.9,0-53.3-4.4-78.6-13.2c-26.2-9.1-50.5-22.5-72.3-40.1c-48-38.6-108.3-59.9-169.7-59.9c-82.6,0-159.6,36.9-211.3,101.1
			c-53.5,66.5-70.4,150.9-53.3,228.4c-4.5-7.4-8.7-14.8-12.8-22.5c-30.4-56.6-49.4-117.8-56.3-182c-7-64.2-1.6-128.1,16-189.9
			c18.2-64,48.8-122.9,90.8-175.2c24.1-30,51.5-57,81.5-80.5c29.2-22.8,61-42.3,94.5-58c33-15.4,67.7-27.3,103.4-35.2
			C-4024.3,1827-3987.9,1823-3951.6,1823 M-3951.6,1808c-149.7,0-298.1,65.3-399.2,191.1c-177.2,220.3-142.3,542.6,78,719.8
			c-110.2-88.6-127.6-249.8-39-359.9c50.6-62.9,124.8-95.5,199.6-95.5c56.3,0,113,18.5,160.3,56.5c47.3,38,104,56.5,160.3,56.5
			c74.9,0,149-32.7,199.6-95.5c88.6-110.2,71.2-271.3-39-359.9C-3725.6,1845-3839,1808-3951.6,1808L-3951.6,1808z"/>
	</g>
</g>
<g>
	<path class="st0" d="M-3151.3,1179.8c-83.2-8.7-169.1,23.6-225.4,93.2c-88.3,109-71,268.6,38.8,356.4
		c-219.5-175.5-254.2-494.6-77.5-712.7s497.7-252.6,717.2-77c109.7,87.8,127.1,247.3,38.8,356.4c-56.4,69.6-142.2,101.8-225.4,93.2
		l-54.5-3.1"/>
</g>
<g>
	<path class="st0" d="M-2939.5,1286l-50.1-31.7c-9.8-5.9-19.3-12.5-28.5-19.8c-9.2-7.3-18.7-13.9-28.5-19.8l-54.8-18.7"/>
</g>
<g>
	<path class="st1" d="M-2631.9,1538.9c-174.9,216.4-492.8,250.6-710.1,76.5c-108.6-87.1-125.8-245.4-38.4-353.6
		c55.8-69.1,140.8-101,223.2-92.4c35.9,3.7,71.3,15.2,103.6,34.6c9.7,5.8,19.2,12.4,28.2,19.7c9.1,7.3,18.5,13.8,28.2,19.7
		c32.3,19.4,67.7,30.8,103.6,34.6c82.4,8.6,167.4-23.4,223.2-92.4c87.4-108.2,70.3-266.5-38.4-353.6
		C-2491.3,1005.9-2457,1322.5-2631.9,1538.9z"/>
</g>
<g>
	<g>
		<path class="st0" d="M-2594.5,972.9c4.4,7.2,8.6,14.6,12.6,22.1c30.4,56.6,49.4,117.8,56.3,182c7,64.2,1.6,128.1-16,189.9
			c-18.2,64-48.8,122.9-90.8,175.2c-24.1,30-51.5,57-81.5,80.5c-29.2,22.8-61,42.3-94.5,58c-33,15.4-67.7,27.3-103.4,35.1
			c-35.4,7.8-71.8,11.8-108.1,11.8c-55.4,0-110-9.1-162.2-27.2c-54-18.7-104.1-46.5-149-82.6c-25.4-20.4-45.9-45.1-61.2-73.5
			c-14.7-27.4-23.9-57.1-27.3-88.3c-3.4-31.1-0.8-62.1,7.8-92.1c8.8-31,23.6-59.6,44-84.9c46-57.2,114.5-89.9,187.9-89.9
			c26.9,0,53.3,4.4,78.6,13.2c26.2,9.1,50.5,22.5,72.3,40.1c48,38.6,108.3,59.9,169.7,59.9c82.6,0,159.6-36.9,211.3-101.1
			c45.4-56.4,66.1-127.1,58.3-199.1C-2590.8,992.1-2592.4,982.4-2594.5,972.9 M-2698.7,831.6c110.2,88.6,127.6,249.8,39,359.9
			c-50.6,62.9-124.8,95.5-199.6,95.5c-56.3,0-113-18.5-160.3-56.5c-47.3-38-104-56.5-160.3-56.5c-74.9,0-149,32.7-199.6,95.5
			c-88.6,110.2-71.2,271.3,39,359.9c94.6,76.1,208,113.1,320.6,113.1c149.7,0,298.1-65.3,399.2-191.1
			C-2443.5,1331.2-2478.4,1008.9-2698.7,831.6L-2698.7,831.6z"/>
	</g>
	<g>
		<path class="st1" d="M-3019.4,733.5c55.4,0,110,9.1,162.2,27.2c54,18.7,104.1,46.5,149,82.6c25.4,20.4,46,45.1,61.2,73.6
			c14.8,27.4,23.9,57.1,27.3,88.3c3.4,31.1,0.8,62.1-7.8,92.1c-8.8,31-23.7,59.6-44.1,85c-46,57.2-114.5,89.9-187.9,89.9
			c-26.9,0-53.3-4.4-78.6-13.2c-26.2-9.1-50.5-22.5-72.3-40.1c-48-38.6-108.3-59.9-169.7-59.9c-82.6,0-159.6,36.9-211.3,101.1
			c-45.4,56.4-66.1,127.1-58.3,199.1c1.1,9.8,2.6,19.5,4.7,29c-4.4-7.2-8.6-14.6-12.6-22.1c-30.4-56.6-49.4-117.8-56.3-182
			c-7-64.2-1.6-128.1,16-189.9c18.2-64,48.8-122.9,90.8-175.2c24.1-30,51.5-57,81.5-80.5c29.2-22.8,61-42.3,94.5-58
			c33-15.4,67.7-27.3,103.4-35.2C-3092,737.5-3055.6,733.5-3019.4,733.5 M-3019.4,718.5c-149.7,0-298.1,65.3-399.2,191.1
			c-177.2,220.3-142.3,542.6,78,719.8c-110.2-88.6-127.6-249.8-39-359.9c50.6-62.9,124.8-95.5,199.6-95.5
			c56.3,0,113,18.5,160.3,56.5c47.3,38,104,56.5,160.3,56.5c74.9,0,149-32.7,199.6-95.5c88.6-110.2,71.2-271.3-39-359.9
			C-2793.3,755.5-2906.7,718.5-3019.4,718.5L-3019.4,718.5z"/>
	</g>
</g>
<g>
	<g>
		<path class="st0" d="M-2433.5,2804.1c-25.5-6.3-50.5-14.6-75-25c-60.1-25.4-114-61.8-160.4-108.1s-82.7-100.3-108.1-160.4
			c-26.3-62.2-39.6-128.3-39.6-196.4s13.3-134.2,39.6-196.4c25.4-60.1,61.8-114,108.1-160.4c46.3-46.3,100.3-82.7,160.4-108.1
			c62.2-26.3,128.3-39.6,196.4-39.6c66.4,0,128.8,25.8,175.7,72.8s72.8,109.3,72.8,175.7c0,66.4-25.8,128.8-72.8,175.7
			c-46.9,46.9-109.3,72.8-175.7,72.8c-145.3,0-263.5,118.2-263.5,263.5C-2575.6,2671.8-2517.8,2760.1-2433.5,2804.1z"/>
		<path class="st1" d="M-2312.1,1817.3c32.5,0,64.1,6.4,93.8,18.9c28.7,12.1,54.5,29.5,76.6,51.7c22.1,22.1,39.5,47.9,51.7,76.6
			c12.6,29.7,18.9,61.3,18.9,93.8c0,32.5-6.4,64.1-18.9,93.8c-12.1,28.7-29.5,54.5-51.7,76.6c-22.1,22.1-47.9,39.5-76.6,51.7
			c-29.7,12.6-61.3,18.9-93.8,18.9c-149.4,0-271,121.6-271,271c0,85.4,39.7,161.7,101.6,211.4c-8.1-2.9-16.1-6.1-24.1-9.5
			c-59.2-25-112.3-60.9-158-106.5c-45.6-45.6-81.5-98.8-106.5-158c-25.9-61.3-39.1-126.3-39.1-193.5c0-67.1,13.1-132.2,39.1-193.5
			c25-59.2,60.9-112.3,106.5-158c45.6-45.6,98.8-81.5,158-106.5C-2444.3,1830.4-2379.2,1817.3-2312.1,1817.3 M-2312.1,1802.3
			c-282.8,0-512,229.2-512,512s229.2,512,512,512c-141.4,0-256-114.6-256-256c0-141.4,114.6-256,256-256c141.4,0,256-114.6,256-256
			C-2056.1,1916.9-2170.7,1802.3-2312.1,1802.3L-2312.1,1802.3z"/>
	</g>
	<g>
		<path class="st1" d="M-2312.1,2818.8c-66.4,0-128.8-25.8-175.7-72.8c-46.9-46.9-72.8-109.3-72.8-175.7
			c0-66.4,25.8-128.8,72.8-175.7c46.9-46.9,109.3-72.8,175.7-72.8c145.3,0,263.5-118.2,263.5-263.5c0-101.5-57.7-189.8-142.1-233.8
			c25.5,6.3,50.5,14.6,75,25c60.1,25.4,114,61.8,160.4,108.1c46.3,46.3,82.7,100.3,108.1,160.4c26.3,62.2,39.6,128.3,39.6,196.4
			s-13.3,134.2-39.6,196.4c-25.4,60.1-61.8,114-108.1,160.4s-100.3,82.7-160.4,108.1C-2177.9,2805.4-2244,2818.8-2312.1,2818.8z"/>
		<path class="st0" d="M-2142.7,1846.9c8.1,2.9,16.1,6.1,24.1,9.5c59.2,25,112.3,60.9,158,106.5c45.6,45.6,81.5,98.8,106.5,158
			c25.9,61.3,39.1,126.3,39.1,193.5c0,67.1-13.1,132.2-39.1,193.5c-25,59.2-60.9,112.3-106.5,158s-98.8,81.5-158,106.5
			c-61.3,25.9-126.3,39.1-193.5,39.1c-32.5,0-64.1-6.4-93.8-18.9c-28.7-12.1-54.5-29.5-76.6-51.7c-22.1-22.1-39.5-47.9-51.7-76.6
			c-12.6-29.7-18.9-61.3-18.9-93.8c0-32.5,6.4-64.1,18.9-93.8c12.1-28.7,29.5-54.5,51.7-76.6c22.1-22.1,47.9-39.5,76.6-51.7
			c29.7-12.6,61.3-18.9,93.8-18.9c149.4,0,271-121.6,271-271C-2041.1,1972.9-2080.8,1896.6-2142.7,1846.9 M-2312.1,1802.3
			c141.4,0,256,114.6,256,256c0,141.4-114.6,256-256,256c-141.4,0-256,114.6-256,256c0,141.4,114.6,256,256,256
			c282.8,0,512-229.2,512-512S-2029.3,1802.3-2312.1,1802.3L-2312.1,1802.3z"/>
	</g>
</g>
<path class="st1" d="M-2344.9,2237.4v79c-35.2,4.5-68.1,16.1-97.3,33.4v-112.4c0-13.5,5.4-25.7,14.2-34.5c8.8-8.8,21-14.3,34.4-14.3
	C-2366.7,2188.6-2344.9,2210.4-2344.9,2237.4z"/>
<path class="st0" d="M-2049.8,2590.4c0,2.8-0.2,5.7-0.8,8.5c-4.7,26.6-29.9,44.3-56.4,39.6l-295.2-52.2
	c-23.2-4.1-40.2-24.4-40.2-48.1v-188.4c29.2-17.3,62.1-28.9,97.3-33.4v139.9c0,23.7,16.9,44,40.2,48.1l214.8,38
	C-2066.4,2546.5-2049.8,2567.1-2049.8,2590.4z"/>
<path class="st1" d="M-2181.9,2090.4v188.4c-29.2,17.3-62.1,28.9-97.3,33.4v-139.9c0-23.7-16.9-44-40.2-48.1l-214.8-38
	c-26.5-4.7-44.1-30-39.5-56.6c4.7-26.6,29.9-44.3,56.4-39.6l295.2,52.2C-2198.9,2046.4-2181.9,2066.7-2181.9,2090.4z"/>
<path class="st0" d="M-2181.9,2278.8v112.4c0,27-21.8,48.8-48.7,48.8c-13.4,0-25.6-5.5-34.4-14.3c-8.8-8.8-14.2-21.1-14.2-34.5v-79
	C-2244,2307.7-2211.1,2296-2181.9,2278.8z"/>
<circle class="st2" cx="146.4" cy="375.8" r="128"/>
<circle class="st3" cx="658.4" cy="374.9" r="128"/>
<g>
	<path class="st1" d="M512,1016.5c-68.1,0-134.2-13.3-196.4-39.6c-60.1-25.4-114-61.8-160.4-108.1
		c-46.3-46.3-82.7-100.3-108.1-160.4C20.8,646.2,7.5,580.1,7.5,512c0-66.4,25.8-128.8,72.8-175.7c46.9-46.9,109.3-72.8,175.7-72.8
		c66.4,0,128.8,25.8,175.7,72.8c46.9,46.9,72.8,109.3,72.8,175.7c0,145.3,118.2,263.5,263.5,263.5c101.5,0,189.8-57.7,233.8-142.1
		c-6.3,25.5-14.6,50.5-25,75c-25.4,60.1-61.8,114-108.1,160.4s-100.3,82.7-160.4,108.1C646.2,1003.2,580.1,1016.5,512,1016.5z"/>
	<path class="st0" d="M256,271c32.5,0,64.1,6.4,93.8,18.9c28.7,12.1,54.5,29.5,76.6,51.7c22.1,22.1,39.5,47.9,51.7,76.6
		c12.6,29.7,18.9,61.3,18.9,93.8c0,149.4,121.6,271,271,271c85.4,0,161.7-39.7,211.4-101.6c-2.9,8.1-6.1,16.1-9.5,24.1
		c-25,59.2-60.9,112.3-106.5,158s-98.8,81.5-158,106.5C644.2,995.9,579.1,1009,512,1009c-67.1,0-132.2-13.1-193.4-39.1
		c-59.2-25-112.3-60.9-158-106.5c-45.6-45.6-81.5-98.8-106.5-158C28.1,644.2,15,579.1,15,512c0-32.5,6.4-64.1,18.9-93.8
		c12.1-28.7,29.5-54.5,51.7-76.6c22.1-22.1,47.9-39.5,76.6-51.7C191.9,277.4,223.5,271,256,271 M256,256C114.6,256,0,370.6,0,512
		c0,282.8,229.2,512,512,512c282.8,0,512-229.2,512-512c0,141.4-114.6,256-256,256c-141.4,0-256-114.6-256-256
		C512,370.6,397.4,256,256,256L256,256z"/>
</g>
<g>
	<path class="st0" d="M768,760.5c-66.4,0-128.8-25.8-175.7-72.8c-46.9-46.9-72.8-109.3-72.8-175.7c0-145.3-118.2-263.5-263.5-263.5
		c-101.5,0-189.8,57.7-233.8,142.1c6.3-25.5,14.6-50.5,25-75c25.4-60.1,61.8-114,108.1-160.4c46.3-46.3,100.3-82.7,160.4-108.1
		C377.8,20.8,443.9,7.5,512,7.5c68.1,0,134.2,13.3,196.4,39.6c60.1,25.4,114,61.8,160.4,108.1s82.7,100.3,108.1,160.4
		c26.3,62.2,39.6,128.3,39.6,196.4c0,66.4-25.8,128.8-72.8,175.7C896.8,734.7,834.4,760.5,768,760.5z"/>
	<path class="st1" d="M512,15c67.1,0,132.2,13.1,193.5,39.1c59.2,25,112.3,60.9,158,106.5c45.6,45.6,81.5,98.8,106.5,158
		c25.9,61.3,39.1,126.3,39.1,193.5c0,32.5-6.4,64.1-18.9,93.8c-12.1,28.7-29.5,54.5-51.7,76.6c-22.1,22.1-47.9,39.5-76.6,51.7
		C832.1,746.6,800.5,753,768,753c-32.5,0-64.1-6.4-93.8-18.9c-28.7-12.1-54.5-29.5-76.6-51.7c-22.1-22.1-39.5-47.9-51.7-76.6
		C533.4,576.1,527,544.5,527,512c0-149.4-121.6-271-271-271c-85.4,0-161.7,39.7-211.4,101.6c2.9-8.1,6.1-16.1,9.5-24.1
		c25-59.2,60.9-112.3,106.5-158c45.6-45.6,98.8-81.5,158-106.5C379.8,28.1,444.9,15,512,15 M512,0C229.2,0,0,229.2,0,512
		c0-141.4,114.6-256,256-256c141.4,0,256,114.6,256,256c0,141.4,114.6,256,256,256c141.4,0,256-114.6,256-256
		C1024,229.2,794.8,0,512,0L512,0z"/>
</g>
<path class="st1" d="M812.2,400.4l76.1,90.7c10.2,12.2,10.2,29.9,0,42L759.1,687.3c-11.6,13.8-32.2,15.6-46,4h0
	c-13.8-11.6-15.7-32.2-4.1-46.1l94.1-112.2c10.2-12.1,10.2-29.9,0-42l-94.2-112.3c-11.6-13.8-9.8-34.5,4-46l0,0
	c13.8-11.6,34.4-9.8,46,4.1L812.2,400.4L812.2,400.4z"/>
<path class="st0" d="M211.8,400.4l-76.1,90.7c-10.2,12.2-10.2,29.9,0,42l129.3,154.2c11.6,13.8,32.2,15.6,46,4h0
	c13.8-11.6,15.7-32.2,4.1-46.1l-94.1-112.2c-10.2-12.1-10.2-29.9,0-42l94.2-112.3c11.6-13.8,9.8-34.5-4-46l0,0
	c-13.8-11.6-34.4-9.8-46,4.1L211.8,400.4L211.8,400.4z"/>
<path class="st0" d="M534.6,617.2l-62.4,233c-7,26.2-33.9,41.7-60,34.7c-21.9-5.9-36.4-25.7-36.4-47.3c0-4.2,0.5-8.5,1.7-12.7
	l112-418C503.9,438.9,512,474.5,512,512S520.1,585.1,534.6,617.2z"/>
<path class="st1" d="M646.6,199.2l-112,418C520.1,585.1,512,549.5,512,512s-8.1-73.1-22.6-105.2l62.4-232.9
	c7-26.2,33.9-41.7,60-34.7C638.1,146.2,653.6,173.1,646.6,199.2z"/>
</svg>
