<svg xmlns="http://www.w3.org/2000/svg" viewBox="0 0 1024 1024" xmlns:v="https://vecta.io/nano"><style><![CDATA[.E{fill:#f5f5f4}.F{fill:#222}]]></style><path d="M-3591.8 2285.4c-56.4 69.6-142.2 101.8-225.4 93.2l4-4.7 119.7-141.4c16.1-19 16.1-46.6.1-65.5l-203.2-240.6c-18.2-21.6-50.6-24.4-72.4-6.3a50.98 50.98 0 0 0-18.4 39.2c0 11.5 3.9 23.1 12 32.7l147.8 175c16 19 16 46.6-.1 65.6l-94.2 111.3c-9.8-5.9-19.3-12.5-28.5-19.8s-18.7-13.9-28.5-19.8l54.1-63.8c18.3-21.6 15.5-53.7-6.2-71.8h0c-21.7-18.1-54.1-15.3-72.4 6.3l-80.1 94.5c-83.2-8.7-169.1 23.6-225.4 93.2-88.3 109-71 268.6 38.8 356.4-219.5-175.5-254.2-494.6-77.5-712.7s497.7-252.6 717.2-77c109.6 87.4 126.9 247 38.6 356z" class="E"/><g class="F"><path d="M-3564.1 2628.4c-174.9 216.4-492.8 250.6-710.1 76.5-108.6-87.1-125.8-245.4-38.4-353.6 55.8-69.1 140.8-101 223.2-92.4 35.9 3.7 71.3 15.2 103.6 34.6 9.7 5.8 19.2 12.4 28.2 19.7 9.1 7.3 18.5 13.8 28.2 19.7 32.3 19.4 67.7 30.8 103.6 34.6 82.4 8.6 167.4-23.4 223.2-92.4 87.4-108.2 70.3-266.5-38.4-353.6 217.4 173.8 251.8 490.5 76.9 706.9z"/><path d="M-3694.1 2227.6l-120.2 142.8-4 4.8c-36.4-3.8-72.3-15.4-105-35.2l94.6-112.4c16.1-19.1 16.1-47.1.1-66.2l-148.4-176.8c-8.1-9.6-12-21.3-12-33 0-14.7 6.3-29.3 18.5-39.5 21.8-18.3 54.4-15.5 72.6 6.3l203.9 243c16.1 19.1 16.1 47-.1 66.2z"/></g><path d="M-3818.3 2375.2l-80.4 95.5c-10.2 12.1-24.8 18.4-39.6 18.4a51.34 51.34 0 0 1-33.1-12c-21.8-18.3-24.6-50.7-6.3-72.5l54.3-64.5c32.8 19.7 68.7 31.3 105.1 35.1z" class="E"/><path d="M-3926.3 2235.5l-54.3 64.5c-32.7-19.7-68.6-31.4-105-35.2l80.4-95.5c18.3-21.8 50.9-24.6 72.7-6.4h0c21.7 18.3 24.5 50.8 6.2 72.6z" class="F"/><path d="M-3933.3 2727.9c-21.8 18.3-54.4 15.5-72.7-6.3l-203.9-243c-16.1-19.1-16-47.1.1-66.2l124.2-147.6c36.4 3.8 72.3 15.4 105 35.2l-94.6 112.4c-16.1 19.1-16.2 47.1-.1 66.2l148.4 176.8c18.3 21.8 15.4 54.2-6.4 72.5z" class="E"/><path d="M-1744.8 264.1l-33.1 187.4c-4.4 25.1 9.8 49.8 33.7 58.5l303.9 110.7c27.2 9.9 57.4-4.2 67.3-31.4h0c9.9-27.3-4.1-57.5-31.4-67.4l-221.1-80.6c-23.9-8.7-38.2-33.4-33.7-58.5l40.9-232.1c5-28.6-14-55.9-42.6-60.9h0c-28.6-5-55.8 14.1-60.8 42.7l-23.1 131.6h0z" class="F"/><path d="M-1076 1721.9c-282.8 0-512 229.2-512 512s229.2 512 512 512c-141.4 0-256-114.6-256-256s114.6-256 256-256 256-114.6 256-256-114.7-256-256-256z" class="E"/><path d="M-1076 1721.9c141.4 0 256 114.6 256 256s-114.6 256-256 256-256 114.6-256 256 114.6 256 256 256c282.8 0 512-229.2 512-512s-229.3-512-512-512z" class="F"/><path d="M-3526.8 2062.4c4.4 7.2 8.6 14.6 12.6 22.1 30.4 56.6 49.4 117.8 56.3 182 7 64.2 1.6 128.1-16 189.9-18.2 64-48.8 122.9-90.8 175.2-24.1 30-51.5 57-81.5 80.5-29.2 22.8-61 42.3-94.5 58-33 15.4-67.7 27.3-103.4 35.2-35.4 7.8-71.8 11.8-108.1 11.8-55.4 0-110-9.1-162.2-27.2-54-18.7-104.1-46.5-149-82.6-25.4-20.4-45.9-45.1-61.2-73.5-14.7-27.4-23.9-57.1-27.3-88.3-3.4-31.1-.8-62.1 7.8-92.1 8.8-31 23.6-59.6 44-84.9 46-57.2 114.5-89.9 187.9-89.9 26.9 0 53.3 4.4 78.6 13.2 26.2 9.1 50.5 22.5 72.3 40.1 48 38.6 108.3 59.9 169.7 59.9 82.6 0 159.6-36.9 211.3-101.1 45.4-56.4 66.1-127.1 58.3-199.1-1.1-10-2.7-19.7-4.8-29.2m-104.2-141.3c110.2 88.6 127.6 249.8 39 359.9-50.6 62.9-124.8 95.5-199.6 95.5-56.3 0-113-18.5-160.3-56.5s-104-56.5-160.3-56.5c-74.9 0-149 32.7-199.6 95.5-88.6 110.2-71.2 271.3 39 359.9 94.6 76.1 208 113.1 320.6 113.1 149.7 0 298.1-65.3 399.2-191.1 177.2-220.3 142.3-542.6-78-719.8h0z" class="E"/><path d="M-3951.6 1823c55.4 0 110 9.1 162.2 27.2 54 18.7 104.1 46.5 149 82.6 25.4 20.4 46 45.1 61.2 73.6 14.7 27.4 23.9 57.1 27.3 88.3 3.4 31.1.8 62.1-7.8 92.1-8.8 31-23.7 59.6-44.1 85-46 57.2-114.5 89.9-187.9 89.9-26.9 0-53.3-4.4-78.6-13.2-26.2-9.1-50.5-22.5-72.3-40.1-48-38.6-108.3-59.9-169.7-59.9-82.6 0-159.6 36.9-211.3 101.1-53.5 66.5-70.4 150.9-53.3 228.4-4.5-7.4-8.7-14.8-12.8-22.5-30.4-56.6-49.4-117.8-56.3-182-7-64.2-1.6-128.1 16-189.9 18.2-64 48.8-122.9 90.8-175.2 24.1-30 51.5-57 81.5-80.5 29.2-22.8 61-42.3 94.5-58 33-15.4 67.7-27.3 103.4-35.2 35.5-7.7 71.9-11.7 108.2-11.7m0-15c-149.7 0-298.1 65.3-399.2 191.1-177.2 220.3-142.3 542.6 78 719.8-110.2-88.6-127.6-249.8-39-359.9 50.6-62.9 124.8-95.5 199.6-95.5 56.3 0 113 18.5 160.3 56.5s104 56.5 160.3 56.5c74.9 0 149-32.7 199.6-95.5 88.6-110.2 71.2-271.3-39-359.9-94.6-76.1-208-113.1-320.6-113.1h0z" class="F"/><g class="E"><path d="M-3151.3 1179.8c-83.2-8.7-169.1 23.6-225.4 93.2-88.3 109-71 268.6 38.8 356.4-219.5-175.5-254.2-494.6-77.5-712.7s497.7-252.6 717.2-77c109.7 87.8 127.1 247.3 38.8 356.4-56.4 69.6-142.2 101.8-225.4 93.2l-54.5-3.1"/><path d="M-2939.5 1286l-50.1-31.7c-9.8-5.9-19.3-12.5-28.5-19.8s-18.7-13.9-28.5-19.8l-54.8-18.7"/></g><path d="M-2631.9 1538.9c-174.9 216.4-492.8 250.6-710.1 76.5-108.6-87.1-125.8-245.4-38.4-353.6 55.8-69.1 140.8-101 223.2-92.4 35.9 3.7 71.3 15.2 103.6 34.6 9.7 5.8 19.2 12.4 28.2 19.7 9.1 7.3 18.5 13.8 28.2 19.7 32.3 19.4 67.7 30.8 103.6 34.6 82.4 8.6 167.4-23.4 223.2-92.4 87.4-108.2 70.3-266.5-38.4-353.6 217.5 173.9 251.8 490.5 76.9 706.9z" class="F"/><path d="M-2594.5 972.9c4.4 7.2 8.6 14.6 12.6 22.1 30.4 56.6 49.4 117.8 56.3 182 7 64.2 1.6 128.1-16 189.9-18.2 64-48.8 122.9-90.8 175.2-24.1 30-51.5 57-81.5 80.5-29.2 22.8-61 42.3-94.5 58-33 15.4-67.7 27.3-103.4 35.1-35.4 7.8-71.8 11.8-108.1 11.8-55.4 0-110-9.1-162.2-27.2-54-18.7-104.1-46.5-149-82.6-25.4-20.4-45.9-45.1-61.2-73.5-14.7-27.4-23.9-57.1-27.3-88.3-3.4-31.1-.8-62.1 7.8-92.1 8.8-31 23.6-59.6 44-84.9 46-57.2 114.5-89.9 187.9-89.9 26.9 0 53.3 4.4 78.6 13.2 26.2 9.1 50.5 22.5 72.3 40.1 48 38.6 108.3 59.9 169.7 59.9 82.6 0 159.6-36.9 211.3-101.1 45.4-56.4 66.1-127.1 58.3-199.1-1.1-9.9-2.7-19.6-4.8-29.1m-104.2-141.3c110.2 88.6 127.6 249.8 39 359.9-50.6 62.9-124.8 95.5-199.6 95.5-56.3 0-113-18.5-160.3-56.5s-104-56.5-160.3-56.5c-74.9 0-149 32.7-199.6 95.5-88.6 110.2-71.2 271.3 39 359.9 94.6 76.1 208 113.1 320.6 113.1 149.7 0 298.1-65.3 399.2-191.1 177.2-220.2 142.3-542.5-78-719.8h0z" class="E"/><path d="M-3019.4 733.5c55.4 0 110 9.1 162.2 27.2 54 18.7 104.1 46.5 149 82.6 25.4 20.4 46 45.1 61.2 73.6 14.8 27.4 23.9 57.1 27.3 88.3 3.4 31.1.8 62.1-7.8 92.1-8.8 31-23.7 59.6-44.1 85-46 57.2-114.5 89.9-187.9 89.9-26.9 0-53.3-4.4-78.6-13.2-26.2-9.1-50.5-22.5-72.3-40.1-48-38.6-108.3-59.9-169.7-59.9-82.6 0-159.6 36.9-211.3 101.1-45.4 56.4-66.1 127.1-58.3 199.1 1.1 9.8 2.6 19.5 4.7 29-4.4-7.2-8.6-14.6-12.6-22.1-30.4-56.6-49.4-117.8-56.3-182-7-64.2-1.6-128.1 16-189.9 18.2-64 48.8-122.9 90.8-175.2 24.1-30 51.5-57 81.5-80.5 29.2-22.8 61-42.3 94.5-58 33-15.4 67.7-27.3 103.4-35.2 35.7-7.8 72.1-11.8 108.3-11.8m0-15c-149.7 0-298.1 65.3-399.2 191.1-177.2 220.3-142.3 542.6 78 719.8-110.2-88.6-127.6-249.8-39-359.9 50.6-62.9 124.8-95.5 199.6-95.5 56.3 0 113 18.5 160.3 56.5s104 56.5 160.3 56.5c74.9 0 149-32.7 199.6-95.5 88.6-110.2 71.2-271.3-39-359.9-94.5-76.1-207.9-113.1-320.6-113.1h0z" class="F"/><path d="M-2433.5 2804.1c-25.5-6.3-50.5-14.6-75-25-60.1-25.4-114-61.8-160.4-108.1s-82.7-100.3-108.1-160.4c-26.3-62.2-39.6-128.3-39.6-196.4s13.3-134.2 39.6-196.4c25.4-60.1 61.8-114 108.1-160.4 46.3-46.3 100.3-82.7 160.4-108.1 62.2-26.3 128.3-39.6 196.4-39.6 66.4 0 128.8 25.8 175.7 72.8s72.8 109.3 72.8 175.7-25.8 128.8-72.8 175.7c-46.9 46.9-109.3 72.8-175.7 72.8-145.3 0-263.5 118.2-263.5 263.5 0 101.6 57.8 189.9 142.1 233.9z" class="E"/><path d="M-2312.1 1817.3c32.5 0 64.1 6.4 93.8 18.9 28.7 12.1 54.5 29.5 76.6 51.7 22.1 22.1 39.5 47.9 51.7 76.6 12.6 29.7 18.9 61.3 18.9 93.8s-6.4 64.1-18.9 93.8c-12.1 28.7-29.5 54.5-51.7 76.6-22.1 22.1-47.9 39.5-76.6 51.7-29.7 12.6-61.3 18.9-93.8 18.9-149.4 0-271 121.6-271 271 0 85.4 39.7 161.7 101.6 211.4-8.1-2.9-16.1-6.1-24.1-9.5-59.2-25-112.3-60.9-158-106.5-45.6-45.6-81.5-98.8-106.5-158-25.9-61.3-39.1-126.3-39.1-193.5 0-67.1 13.1-132.2 39.1-193.5 25-59.2 60.9-112.3 106.5-158 45.6-45.6 98.8-81.5 158-106.5 61.3-25.8 126.4-38.9 193.5-38.9m0-15c-282.8 0-512 229.2-512 512s229.2 512 512 512c-141.4 0-256-114.6-256-256s114.6-256 256-256 256-114.6 256-256-114.6-256-256-256h0zm0 1016.5c-66.4 0-128.8-25.8-175.7-72.8-46.9-46.9-72.8-109.3-72.8-175.7s25.8-128.8 72.8-175.7c46.9-46.9 109.3-72.8 175.7-72.8 145.3 0 263.5-118.2 263.5-263.5 0-101.5-57.7-189.8-142.1-233.8 25.5 6.3 50.5 14.6 75 25 60.1 25.4 114 61.8 160.4 108.1 46.3 46.3 82.7 100.3 108.1 160.4 26.3 62.2 39.6 128.3 39.6 196.4s-13.3 134.2-39.6 196.4c-25.4 60.1-61.8 114-108.1 160.4s-100.3 82.7-160.4 108.1c-62.2 26.1-128.3 39.5-196.4 39.5z" class="F"/><path d="M-2142.7 1846.9c8.1 2.9 16.1 6.1 24.1 9.5 59.2 25 112.3 60.9 158 106.5 45.6 45.6 81.5 98.8 106.5 158 25.9 61.3 39.1 126.3 39.1 193.5 0 67.1-13.1 132.2-39.1 193.5-25 59.2-60.9 112.3-106.5 158s-98.8 81.5-158 106.5c-61.3 25.9-126.3 39.1-193.5 39.1-32.5 0-64.1-6.4-93.8-18.9-28.7-12.1-54.5-29.5-76.6-51.7-22.1-22.1-39.5-47.9-51.7-76.6-12.6-29.7-18.9-61.3-18.9-93.8s6.4-64.1 18.9-93.8c12.1-28.7 29.5-54.5 51.7-76.6 22.1-22.1 47.9-39.5 76.6-51.7 29.7-12.6 61.3-18.9 93.8-18.9 149.4 0 271-121.6 271-271 0-85.6-39.7-161.9-101.6-211.6m-169.4-44.6c141.4 0 256 114.6 256 256s-114.6 256-256 256-256 114.6-256 256 114.6 256 256 256c282.8 0 512-229.2 512-512s-229.2-512-512-512h0z" class="E"/><path d="M-2344.9 2237.4v79c-35.2 4.5-68.1 16.1-97.3 33.4v-112.4c0-13.5 5.4-25.7 14.2-34.5s21-14.3 34.4-14.3c26.9 0 48.7 21.8 48.7 48.8z" class="F"/><path d="M-2049.8 2590.4c0 2.8-.2 5.7-.8 8.5-4.7 26.6-29.9 44.3-56.4 39.6l-295.2-52.2c-23.2-4.1-40.2-24.4-40.2-48.1v-188.4c29.2-17.3 62.1-28.9 97.3-33.4v139.9c0 23.7 16.9 44 40.2 48.1l214.8 38c23.7 4.1 40.3 24.7 40.3 48z" class="E"/><path d="M-2181.9 2090.4v188.4c-29.2 17.3-62.1 28.9-97.3 33.4v-139.9c0-23.7-16.9-44-40.2-48.1l-214.8-38c-26.5-4.7-44.1-30-39.5-56.6 4.7-26.6 29.9-44.3 56.4-39.6l295.2 52.2c23.2 4.2 40.2 24.5 40.2 48.2z" class="F"/><path d="M-2181.9 2278.8v112.4c0 27-21.8 48.8-48.7 48.8-13.4 0-25.6-5.5-34.4-14.3s-14.2-21.1-14.2-34.5v-79c35.2-4.5 68.1-16.2 97.3-33.4z" class="E"/><path d="M512 1016.5c-68.1 0-134.2-13.3-196.4-39.6-60.1-25.4-114-61.8-160.4-108.1-46.3-46.3-82.7-100.3-108.1-160.4C20.8 646.2 7.5 580.1 7.5 512c0-66.4 25.8-128.8 72.8-175.7 46.9-46.9 109.3-72.8 175.7-72.8s128.8 25.8 175.7 72.8c46.9 46.9 72.8 109.3 72.8 175.7 0 145.3 118.2 263.5 263.5 263.5 101.5 0 189.8-57.7 233.8-142.1-6.3 25.5-14.6 50.5-25 75-25.4 60.1-61.8 114-108.1 160.4s-100.3 82.7-160.4 108.1c-62.1 26.3-128.2 39.6-196.3 39.6z" class="F"/><path d="M256 271c32.5 0 64.1 6.4 93.8 18.9 28.7 12.1 54.5 29.5 76.6 51.7 22.1 22.1 39.5 47.9 51.7 76.6 12.6 29.7 18.9 61.3 18.9 93.8 0 149.4 121.6 271 271 271 85.4 0 161.7-39.7 211.4-101.6-2.9 8.1-6.1 16.1-9.5 24.1-25 59.2-60.9 112.3-106.5 158S764.6 945 705.4 970c-61.2 25.9-126.3 39-193.4 39s-132.2-13.1-193.4-39.1c-59.2-25-112.3-60.9-158-106.5-45.6-45.6-81.5-98.8-106.5-158C28.1 644.2 15 579.1 15 512c0-32.5 6.4-64.1 18.9-93.8 12.1-28.7 29.5-54.5 51.7-76.6 22.1-22.1 47.9-39.5 76.6-51.7 29.7-12.5 61.3-18.9 93.8-18.9m0-15C114.6 256 0 370.6 0 512c0 282.8 229.2 512 512 512s512-229.2 512-512c0 141.4-114.6 256-256 256S512 653.4 512 512 397.4 256 256 256h0zm512 504.5c-66.4 0-128.8-25.8-175.7-72.8-46.9-46.9-72.8-109.3-72.8-175.7 0-145.3-118.2-263.5-263.5-263.5-101.5 0-189.8 57.7-233.8 142.1 6.3-25.5 14.6-50.5 25-75 25.4-60.1 61.8-114 108.1-160.4 46.3-46.3 100.3-82.7 160.4-108.1C377.8 20.8 443.9 7.5 512 7.5s134.2 13.3 196.4 39.6c60.1 25.4 114 61.8 160.4 108.1s82.7 100.3 108.1 160.4c26.3 62.2 39.6 128.3 39.6 196.4 0 66.4-25.8 128.8-72.8 175.7-46.9 47-109.3 72.8-175.7 72.8z" class="E"/><path d="M512 15c67.1 0 132.2 13.1 193.5 39.1 59.2 25 112.3 60.9 158 106.5 45.6 45.6 81.5 98.8 106.5 158 25.9 61.3 39.1 126.3 39.1 193.5 0 32.5-6.4 64.1-18.9 93.8-12.1 28.7-29.5 54.5-51.7 76.6-22.1 22.1-47.9 39.5-76.6 51.7-29.8 12.4-61.4 18.8-93.9 18.8s-64.1-6.4-93.8-18.9c-28.7-12.1-54.5-29.5-76.6-51.7-22.1-22.1-39.5-47.9-51.7-76.6-12.5-29.7-18.9-61.3-18.9-93.8 0-149.4-121.6-271-271-271-85.4 0-161.7 39.7-211.4 101.6 2.9-8.1 6.1-16.1 9.5-24.1 25-59.2 60.9-112.3 106.5-158 45.6-45.6 98.8-81.5 158-106.5C379.8 28.1 444.9 15 512 15m0-15C229.2 0 0 229.2 0 512c0-141.4 114.6-256 256-256s256 114.6 256 256 114.6 256 256 256 256-114.6 256-256C1024 229.2 794.8 0 512 0h0zm300.2 400.4l76.1 90.7c10.2 12.2 10.2 29.9 0 42L759.1 687.3c-11.6 13.8-32.2 15.6-46 4h0c-13.8-11.6-15.7-32.2-4.1-46.1L803.1 533c10.2-12.1 10.2-29.9 0-42l-94.2-112.3c-11.6-13.8-9.8-34.5 4-46h0c13.8-11.6 34.4-9.8 46 4.1l53.3 63.6h0z" class="F"/><path d="M211.8 400.4l-76.1 90.7c-10.2 12.2-10.2 29.9 0 42L265 687.3c11.6 13.8 32.2 15.6 46 4h0c13.8-11.6 15.7-32.2 4.1-46.1L221 533c-10.2-12.1-10.2-29.9 0-42l94.2-112.3c11.6-13.8 9.8-34.5-4-46h0c-13.8-11.6-34.4-9.8-46 4.1l-53.4 63.6h0zm322.8 216.8l-62.4 233c-7 26.2-33.9 41.7-60 34.7-21.9-5.9-36.4-25.7-36.4-47.3 0-4.2.5-8.5 1.7-12.7l112-418c14.4 32 22.5 67.6 22.5 105.1s8.1 73.1 22.6 105.2z" class="E"/><path d="M646.6 199.2l-112 418C520.1 585.1 512 549.5 512 512s-8.1-73.1-22.6-105.2l62.4-232.9c7-26.2 33.9-41.7 60-34.7 26.3 7 41.8 33.9 34.8 60z" class="F"/></svg>