<?xml version="1.0" encoding="utf-8"?>
<!-- Generator: Adobe Illustrator 27.0.0, SVG Export Plug-In . SVG Version: 6.00 Build 0)  -->
<svg version="1.1" id="Livello_1" xmlns="http://www.w3.org/2000/svg" xmlns:xlink="http://www.w3.org/1999/xlink" x="0px" y="0px"
	 viewBox="0 0 36 36" style="enable-background:new 0 0 36 36;" xml:space="preserve">
<style type="text/css">
	.st0{fill:#95A3B3;}
</style>
<path class="st0" d="M0,28.9v-0.8C0,27.5,0.5,27,1.1,27h33.8c0.6,0,1.1,0.5,1.1,1.1v0.8c0,0.6-0.5,1.1-1.1,1.1H1.1
	C0.5,30,0,29.5,0,28.9z M0,18.4v-0.8c0-0.6,0.5-1.1,1.1-1.1h33.8c0.6,0,1.1,0.5,1.1,1.1v0.8c0,0.6-0.5,1.1-1.1,1.1H1.1
	C0.5,19.5,0,19,0,18.4z M0,7.9V7.1C0,6.5,0.5,6,1.1,6h33.8C35.5,6,36,6.5,36,7.1v0.8C36,8.5,35.5,9,34.9,9H1.1C0.5,9,0,8.5,0,7.9z"
	/>
</svg>
