<svg xmlns="http://www.w3.org/2000/svg" version="1.1" xmlns:xlink="http://www.w3.org/1999/xlink" xmlns:svgjs="http://svgjs.dev/svgjs" width="2283" height="2283"><svg xmlns="http://www.w3.org/2000/svg" version="1.1" xmlns:xlink="http://www.w3.org/1999/xlink" viewBox="0 0 2283 2283">
  <defs>
    <style>
      .cls-1 {
        filter: url(#drop-shadow-2);
      }

      .cls-2 {
        fill: none;
        stroke: #f5f5f4;
        stroke-miterlimit: 10;
        stroke-width: 36px;
      }

      .cls-3 {
        filter: url(#drop-shadow-5);
      }

      .cls-4 {
        fill: #232148;
      }

      .cls-5 {
        filter: url(#drop-shadow-4);
      }

      .cls-6 {
        fill: #f5f5f4;
      }

      .cls-7 {
        filter: url(#drop-shadow-3);
      }
    </style>
    <filter id="SvgjsFilter1041">
      <feOffset dx="0" dy="9.01"></feOffset>
      <feGaussianBlur result="blur" stdDeviation="27.04"></feGaussianBlur>
      <feFlood flood-color="#000" flood-opacity=".35"></feFlood>
      <feComposite in2="blur" operator="in"></feComposite>
      <feComposite in="SourceGraphic"></feComposite>
    </filter>
    <filter id="SvgjsFilter1040">
      <feOffset dx="0" dy="9.01"></feOffset>
      <feGaussianBlur result="blur-2" stdDeviation="27.04"></feGaussianBlur>
      <feFlood flood-color="#000" flood-opacity=".35"></feFlood>
      <feComposite in2="blur-2" operator="in"></feComposite>
      <feComposite in="SourceGraphic"></feComposite>
    </filter>
    <filter id="SvgjsFilter1039">
      <feOffset dx="0" dy="9.01"></feOffset>
      <feGaussianBlur result="blur-3" stdDeviation="27.04"></feGaussianBlur>
      <feFlood flood-color="#000" flood-opacity=".35"></feFlood>
      <feComposite in2="blur-3" operator="in"></feComposite>
      <feComposite in="SourceGraphic"></feComposite>
    </filter>
    <filter id="SvgjsFilter1038">
      <feOffset dx="0" dy="9.01"></feOffset>
      <feGaussianBlur result="blur-4" stdDeviation="27.04"></feGaussianBlur>
      <feFlood flood-color="#000" flood-opacity=".35"></feFlood>
      <feComposite in2="blur-4" operator="in"></feComposite>
      <feComposite in="SourceGraphic"></feComposite>
    </filter>
  </defs>
  <!-- Generator: Adobe Illustrator 28.6.0, SVG Export Plug-In . SVG Version: 1.2.0 Build 709)  -->
  <g>
    <g id="SvgjsG1037">
      <g>
        <g class="cls-1">
          <path class="cls-4" d="M1964.3,1661c0,.2-.1.3-.2.5-5,13.2-10.3,26.4-15.9,39.5-.7,1.7-1.5,3.3-2.2,5-1.5,3.5-3.1,7-4.7,10.5-75.3,166-177.1,290.7-324,366.9-1.1.6-2.1,1.1-3.1,1.6-14.7,7.5-29.9,14.6-45.5,21.1-2.2.9-4.3,1.8-6.4,2.7-65.7,26.8-139.6,45.1-223,54.3-72.1,8-135.2-48.6-135.2-121.2V227.2c0-73.6,72.7-128.1,141.7-102.8,253.2,92.6,456.6,322.7,575.6,614.2,6.1,14.8,11.9,29.8,17.5,44.8,53.4,143.4,78.3,257.4,85.5,446.7,4,104.7-1.3,275.8-60.1,430.9h0Z"></path>
          <path class="cls-2" d="M1964.3,1661c0,.2-.1.3-.2.5-5,13.2-10.3,26.4-15.9,39.5-.7,1.7-1.5,3.3-2.2,5-1.5,3.5-3.1,7-4.7,10.5-75.3,166-177.1,290.7-324,366.9-1.1.6-2.1,1.1-3.1,1.6-14.7,7.5-29.9,14.6-45.5,21.1-2.2.9-4.3,1.8-6.4,2.7-65.7,26.8-139.6,45.1-223,54.3-72.1,8-135.2-48.6-135.2-121.2V227.2c0-73.6,72.7-128.1,141.7-102.8,253.2,92.6,456.6,322.7,575.6,614.2,6.1,14.8,11.9,29.8,17.5,44.8,53.4,143.4,78.3,257.4,85.5,446.7,4,104.7-1.3,275.8-60.1,430.9h0Z"></path>
        </g>
        <path class="cls-6" d="M1945.8,783.4l-65.3,152c-20.5,56.5-59.8,104.6-111.7,136.4l-188.3,115.9v-46.2l161.4-93.4c40.7-27.3,73.3-59.1,92.9-101.5l93.2-208.2c6.2,14.8,12.1,29.8,17.8,44.8h0Z"></path>
        <path class="cls-6" d="M1969.8,1661c0,.2-.1.3-.2.5-5.1,13.2-10.5,26.4-16.2,39.5l-111.8-91.4c-43.5-33.5-66.1-51.3-128.3-83.6-18.7-9.8-38.3-17.8-58.5-24.1l-74.3-23.1v-49.8l102.7,36c72.8,31.8,113.1,49.8,198.5,117.5l88.2,78.6h0Z"></path>
        <path class="cls-6" d="M1617.3,2088.5c-1.1.6-2.1,1.1-3.1,1.7-14.7,7.8-29.9,15.1-45.5,21.9l-31.1-163.4c-5.7-26.8-11.1-58.5-36.4-101.3l-82.2-132.3h55.2l54.1,78.2c28.2,43.8,46.9,91.3,57.7,139.7l31.4,155.5h0Z"></path>
        <path class="cls-6" d="M1396.6,825s67.9-132.5,74.2-146.8c35.6-80.1,29.1-173-15.5-249.8l-13.3-23c-4.8-8.3-8.1-15.9-6.4-22.6,1.1-4.1,4.2-7.5,8.1-9.5h0c6.8-3.4,15.2-2.3,20.4,3,3.8,3.8,15.9,23.1,25.2,42.4l15.1,31.9c26.1,55.1,31.3,116.4,22.4,176.2-4,27.1-31.3,82.5-31.3,82.5l-58.8,115.7h-40.2Z"></path>
        <g class="cls-7">
          <path class="cls-4" d="M318.7,1661.7c0,.2.1.3.2.5,5,13.2,10.3,26.4,16,39.5.7,1.7,1.5,3.3,2.2,5,1.5,3.5,3.1,7,4.7,10.5,75.3,166,177.1,290.7,323.9,366.9,1,.6,2.1,1.1,3.1,1.6,14.7,7.5,29.9,14.6,45.5,21.1,2.2.9,4.3,1.8,6.5,2.7,65.7,26.8,139.6,45.1,223,54.3,72.1,8,135.2-48.6,135.2-121.2V227.9c0-73.6-72.7-128.1-141.7-102.8-253.2,92.6-456.6,322.7-575.6,614.2-6.1,14.8-11.9,29.8-17.5,44.8-53.4,143.4-78.3,257.4-85.5,446.7-4,104.7,1.3,275.8,60,430.9h0Z"></path>
          <path class="cls-2" d="M318.7,1661.7c0,.2.1.3.2.5,5,13.2,10.3,26.4,16,39.5.7,1.7,1.5,3.3,2.2,5,1.5,3.5,3.1,7,4.7,10.5,75.3,166,177.1,290.7,323.9,366.9,1,.6,2.1,1.1,3.1,1.6,14.7,7.5,29.9,14.6,45.5,21.1,2.2.9,4.3,1.8,6.5,2.7,65.7,26.8,139.6,45.1,223,54.3,72.1,8,135.2-48.6,135.2-121.2V227.9c0-73.6-72.7-128.1-141.7-102.8-253.2,92.6-456.6,322.7-575.6,614.2-6.1,14.8-11.9,29.8-17.5,44.8-53.4,143.4-78.3,257.4-85.5,446.7-4,104.7,1.3,275.8,60,430.9h0Z"></path>
        </g>
        <path class="cls-6" d="M337.2,784l65.3,152c20.5,56.5,59.8,104.6,111.6,136.4l188.3,115.9v-46.2l-161.4-93.4c-40.7-27.3-73.3-59.1-92.9-101.5l-93.2-208.2c-6.2,14.8-12.1,29.8-17.8,44.8h0Z"></path>
        <path class="cls-6" d="M313.2,1661.7c0,.2.1.3.2.5,5.1,13.2,10.5,26.4,16.2,39.5l111.8-91.4c43.5-33.5,66.1-51.3,128.3-83.6,18.7-9.8,38.3-17.8,58.5-24.1l74.3-23.1v-49.8l-102.7,36c-72.8,31.8-113.1,49.8-198.5,117.5l-88.2,78.6h0Z"></path>
        <path class="cls-6" d="M665.7,2089.2c1,.6,2.1,1.1,3.1,1.7,14.7,7.8,29.9,15.1,45.5,21.9l31.1-163.4c5.7-26.8,11.1-58.5,36.4-101.3l82.2-132.3h-55.2l-54.1,78.2c-28.2,43.8-46.9,91.3-57.7,139.7l-31.4,155.5h0Z"></path>
        <path class="cls-6" d="M886.4,825.7s-67.9-132.5-74.2-146.8c-35.6-80.1-29.1-173,15.5-249.8l13.3-23c4.8-8.3,8.1-15.9,6.4-22.6-1.1-4.1-4.2-7.5-8.1-9.5h0c-6.8-3.4-15.2-2.3-20.4,3-3.8,3.8-15.9,23.1-25.2,42.4l-15.1,31.9c-26.1,55.1-31.3,116.4-22.4,176.2,4,27.1,31.3,82.5,31.3,82.5l58.8,115.7h40.2,0Z"></path>
      </g>
      <g>
        <g class="cls-5">
          <rect class="cls-6" x="690.8" y="819.8" width="901.3" height="901.3" rx="83.2" ry="83.2"></rect>
        </g>
        <g class="cls-3">
          <path class="cls-4" d="M842.1,1206.4c10.7,0,19.7,1,27.1,3,7.4,2,13.4,5.3,17.9,10.1,4.6,4.8,7.9,11.3,9.9,19.6s3.1,18.8,3.1,31.4-1,23.1-3.1,31.4c-2,8.3-5.3,14.8-9.9,19.6-4.6,4.8-10.5,8.1-17.9,10.1-7.4,2-16.4,3-27.1,3s-19.8-.2-28.5-.5c-8.7-.4-16.9-.8-24.7-1.3l15.9-27.8c4.2.5,9.5.8,16,1,6.4.2,13.5.3,21.4.3s7.9-1,10.3-2.9c2.4-1.9,4.1-5.5,5-10.6,1-5.2,1.4-12.6,1.4-22.2s-.5-17-1.4-22.2-2.6-8.7-5-10.6c-2.4-1.9-5.8-2.9-10.3-2.9h-19.4c-5.6,0-11,0-16.3-.2l-17.5-26.3c7.9-.5,16.1-.9,24.6-1.3,8.5-.4,18-.5,28.6-.5h0ZM828,1208.2v124.4h-39.1v-124.4h39.1Z"></path>
          <path class="cls-4" d="M959.8,1207.5c7.2,0,14.6,0,22.3,0,7.6,0,15.1.2,22.4.5s14,.9,20,1.7l-1.8,27.6h-45.6c-2.3,0-4.1.6-5.4,1.8-1.3,1.2-2,2.8-2,4.7v53c0,1.9.7,3.5,2,4.7s3.1,1.8,5.4,1.8h45.6l1.8,27.6c-6,.7-12.7,1.3-20,1.6s-14.8.6-22.4.6-15,0-22.3,0-15.5-2.6-21-7.8-8.2-12.1-8.2-20.5v-69.2c0-8.4,2.7-15.2,8.2-20.5,5.5-5.2,12.5-7.8,21-7.8ZM933.8,1256h82.4v26h-82.4v-26Z"></path>
          <path class="cls-4" d="M1166.9,1208.2l-30.3,113.9c-.7,3.1-2.3,5.7-4.7,7.6-2.4,1.9-5.3,2.9-8.7,2.9h-34.2c-3.4,0-6.2-1-8.7-2.9s-4-4.4-4.7-7.6l-30.3-113.9h40.2l16,80.9c.5,2.3.9,4.7,1.3,7.1s.7,4.8,1.1,7.1h4.3c.2-2.3.6-4.7,1-7.1s.9-4.8,1.3-7.1l16-80.9h40.2Z"></path>
          <path class="cls-4" d="M1328.2,1208.2c8.8,0,13.3,4.5,13.7,13.5l4.3,110.9h-35.2l-3.8-95.2h-2.7l-12.3,63.4c-1.2,7.9-6.1,11.9-14.8,11.9h-20.2c-8.5,0-13.5-4-15-11.9l-12.4-63.4h-2.7l-3.1,95.2h-35.2l4.3-110.9c.4-9,4.9-13.5,13.7-13.5h33.7c8.4,0,13.3,4,14.8,12.1l9,49.4c.5,3,.9,6.1,1.2,9.2.3,3.1.6,6.2.8,9.4h1.6c.4-3.1.7-6.2,1-9.4s.7-6.2,1.2-9.2l8.5-49.4c1.4-8.1,6.4-12.1,15-12.1h34.4,0Z"></path>
          <path class="cls-4" d="M1449,1208.2c3.1,0,5.9.9,8.3,2.7,2.4,1.8,4,4.3,4.9,7.4l32.3,114.3h-39.8l-18.8-80.9c-.5-2.3-.9-4.7-1.3-7.1-.4-2.5-.7-4.8-.9-7.1h-4.9c-.2,2.3-.5,4.7-.9,7.1s-.8,4.8-1.3,7.1l-18.8,80.9h-39.8l32.3-114.3c.8-3.1,2.5-5.6,4.9-7.4,2.4-1.8,5.2-2.7,8.3-2.7h35.5,0ZM1464.3,1278.4v27.4h-66.2v-27.4h66.2Z"></path>
        </g>
      </g>
    </g>
  </g>
</svg><style>@media (prefers-color-scheme: light) { :root { filter: none; } }
@media (prefers-color-scheme: dark) { :root { filter: none; } }
</style></svg>